<?xml version="1.0" standalone="no"?>
<!DOCTYPE svg PUBLIC "-//W3C//DTD SVG 20010904//EN"
 "http://www.w3.org/TR/2001/REC-SVG-20010904/DTD/svg10.dtd">
<svg version="1.0" xmlns="http://www.w3.org/2000/svg"
 width="690.000000pt" height="144.000000pt" viewBox="0 0 690.000000 144.000000"
 preserveAspectRatio="xMidYMid meet">

<g transform="translate(0.000000,144.000000) scale(0.100000,-0.100000)"
fill="#000000" stroke="none">
<path d="M2105 750 c0 -371 1 -523 2 -338 2 186 2 490 0 675 -1 186 -2 34 -2
-337z"/>
<path d="M400 1384 c-215 -18 -335 -111 -381 -294 -20 -78 -20 -662 0 -740 38
-151 130 -243 281 -281 41 -10 135 -14 370 -14 335 0 380 5 470 51 54 27 121
94 148 149 42 86 47 135 47 465 0 330 -5 379 -47 465 -26 53 -93 121 -143 147
-84 44 -127 49 -420 53 -154 1 -300 1 -325 -1z m541 -123 c101 -9 144 -25 192
-70 70 -64 86 -153 86 -471 0 -318 -16 -407 -86 -471 -68 -64 -153 -78 -463
-78 -310 0 -395 14 -463 78 -70 64 -86 153 -86 471 0 218 12 356 34 401 44 87
113 129 230 139 116 10 444 11 556 1z"/>
<path d="M993 1145 c-73 -31 -51 -145 28 -145 42 0 65 14 77 48 23 66 -40 124
-105 97z"/>
<path d="M568 1047 c-99 -38 -157 -88 -206 -181 -24 -45 -27 -62 -27 -146 0
-89 2 -99 34 -158 39 -71 79 -110 154 -149 46 -25 63 -28 147 -28 84 0 101 3
147 28 75 39 115 78 154 149 32 59 34 69 34 158 0 84 -3 101 -28 147 -39 76
-78 115 -149 153 -54 29 -75 34 -143 37 -51 2 -93 -2 -117 -10z m221 -140 c22
-15 53 -46 68 -69 24 -36 28 -51 28 -118 0 -67 -4 -82 -28 -118 -15 -23 -46
-54 -69 -69 -36 -24 -51 -28 -118 -28 -67 0 -82 4 -118 28 -63 41 -95 97 -100
171 -6 97 36 173 121 216 61 31 158 25 216 -13z"/>
<path d="M2885 1191 c-48 -29 -115 -108 -143 -169 -37 -81 -41 -158 -11 -212
24 -41 73 -80 103 -80 20 0 20 3 -4 50 -24 48 -27 144 -5 216 15 52 70 144 86
144 12 0 12 -658 0 -730 -5 -30 -12 -67 -16 -83 -11 -42 21 -35 70 17 64 66
67 93 69 493 1 330 0 345 -18 359 -28 20 -95 17 -131 -5z"/>
<path d="M4067 1203 c-4 -3 -7 -39 -7 -80 l0 -73 -60 0 c-50 0 -61 -3 -70 -21
-6 -11 -10 -30 -8 -42 3 -20 10 -22 66 -25 l62 -3 0 -143 c0 -132 -2 -146 -25
-193 -14 -28 -33 -58 -43 -66 -17 -16 -18 -15 -19 17 -1 52 -28 91 -103 151
l-70 56 19 25 c25 32 45 90 37 110 -17 45 -102 32 -144 -21 -25 -31 -29 -93
-10 -125 14 -22 3 -49 -70 -173 -88 -148 -107 -124 -98 118 7 159 6 161 -16
182 -87 81 -171 26 -238 -155 l-29 -77 -3 125 -3 125 -38 13 c-22 6 -43 10
-48 6 -13 -8 -12 -490 1 -515 8 -14 21 -19 50 -19 37 0 39 2 45 38 10 60 54
212 76 262 24 54 78 140 89 140 4 0 7 -85 6 -189 -1 -178 0 -191 20 -218 25
-33 61 -40 103 -19 37 20 67 58 145 190 l63 105 45 -47 c71 -73 84 -114 52
-160 -19 -28 -45 -28 -94 0 l-39 23 -20 -20 c-58 -58 -8 -105 112 -105 102 0
178 49 225 146 17 37 32 44 32 17 0 -42 25 -100 55 -130 60 -60 138 -35 186
59 l20 40 24 -49 c53 -106 164 -113 244 -16 23 28 31 33 31 19 0 -10 15 -33
34 -52 54 -54 122 -45 167 22 l17 26 12 -21 c17 -34 70 -61 117 -61 32 0 52 8
87 35 43 32 46 33 46 13 0 -14 -28 -47 -79 -95 -107 -99 -141 -151 -141 -217
0 -83 46 -126 135 -126 56 0 96 20 128 62 40 54 49 96 55 242 l5 140 45 60
c42 58 132 228 144 274 5 18 13 22 48 22 l43 0 -7 -37 c-29 -171 -15 -277 44
-335 32 -32 44 -38 80 -38 36 0 48 6 75 35 l33 35 35 -35 c29 -29 42 -35 77
-35 53 0 105 24 133 62 11 15 23 28 26 28 4 0 12 -14 19 -30 16 -36 58 -60
103 -60 23 0 40 9 65 36 33 34 34 35 34 11 0 -35 22 -49 72 -45 l43 3 8 80
c11 113 32 212 56 269 12 27 23 47 25 45 2 -2 9 -60 15 -129 6 -69 13 -139 17
-157 9 -47 39 -75 77 -71 l31 3 17 100 c19 115 32 168 57 222 l17 38 5 -145
c7 -156 22 -209 72 -244 26 -18 80 -21 109 -6 38 21 77 136 58 172 -14 26 -25
15 -39 -39 -14 -56 -26 -73 -51 -73 -36 0 -44 37 -49 235 l-5 190 -47 23 c-37
18 -51 21 -67 13 -22 -12 -53 -87 -84 -210 l-22 -86 -6 125 c-3 69 -9 132 -13
139 -12 19 -75 43 -96 36 -18 -6 -42 -54 -76 -155 l-19 -55 -3 97 c-3 107 -1
104 -72 111 l-25 2 -5 -180 c-5 -156 -8 -186 -27 -227 -25 -56 -52 -73 -79
-53 -17 12 -19 32 -24 221 l-5 208 -25 13 c-35 18 -58 16 -72 -6 -11 -18 -12
-18 -36 4 -14 13 -37 25 -52 28 -119 24 -206 -123 -199 -336 3 -92 -4 -122
-32 -137 -71 -38 -100 104 -62 302 15 81 16 90 1 104 -18 18 -42 20 -115 9
-52 -7 -53 -7 -53 18 0 53 -61 76 -100 37 -30 -30 -36 -68 -15 -107 23 -42 13
-79 -53 -208 l-47 -90 -3 187 -2 187 -42 13 c-37 11 -42 10 -56 -8 -16 -19
-16 -19 -39 2 -47 44 -117 39 -168 -12 -53 -52 -78 -131 -81 -254 -4 -132 -10
-157 -40 -177 -56 -36 -76 31 -74 250 1 89 1 167 1 174 -1 14 -67 37 -86 29
-8 -3 -15 -13 -15 -22 0 -15 -3 -15 -22 4 -75 70 -168 41 -224 -70 -16 -32
-29 -83 -38 -151 -14 -104 -31 -152 -67 -188 -28 -28 -48 -23 -65 16 -10 26
-14 80 -14 217 0 101 3 193 6 206 6 20 12 22 73 22 71 0 91 10 91 46 0 23 -35
34 -117 34 l-43 0 0 75 c0 72 -1 76 -26 85 -29 11 -78 13 -87 3z m478 -349
c83 -32 57 -358 -30 -380 -37 -9 -54 1 -72 43 -19 46 -21 188 -3 252 18 68 60
102 105 85z m505 -4 c60 -32 51 -289 -13 -357 -65 -71 -126 26 -114 180 10
139 62 212 127 177z m884 -23 c16 -22 22 -46 24 -112 8 -183 -73 -304 -142
-212 -18 24 -21 43 -21 125 0 121 9 163 42 202 32 38 67 37 97 -3z m-836 -589
c-5 -115 -23 -163 -65 -179 -60 -23 -93 45 -59 124 13 32 111 157 123 157 3 0
4 -46 1 -102z"/>
</g>
</svg>
